<?xml version="1.0" encoding="UTF-8"?>
<svg version="1.1" xmlns="http://www.w3.org/2000/svg" width="256" height="256">
<path d="M0 0 C24.42 0 48.84 0 74 0 C74 2.97 74 5.94 74 9 C79.94 9 85.88 9 92 9 C92 11.97 92 14.94 92 18 C94.97 18 97.94 18 101 18 C101 20.97 101 23.94 101 27 C104.3 27 107.6 27 111 27 C111 30.3 111 33.6 111 37 C113.97 37 116.94 37 120 37 C120 42.94 120 48.88 120 55 C122.97 55 125.94 55 129 55 C129 100.54 129 146.08 129 193 C68.28 193 7.56 193 -55 193 C-55 147.46 -55 101.92 -55 55 C-52.03 55 -49.06 55 -46 55 C-46 49.06 -46 43.12 -46 37 C-43.03 37 -40.06 37 -37 37 C-37 33.7 -37 30.4 -37 27 C-33.7 27 -30.4 27 -27 27 C-27 24.03 -27 21.06 -27 18 C-24.03 18 -21.06 18 -18 18 C-18 15.03 -18 12.06 -18 9 C-12.06 9 -6.12 9 0 9 C0 6.03 0 3.06 0 0 Z M28 28 C28 30.97 28 33.94 28 37 C22.06 37 16.12 37 10 37 C10 39.97 10 42.94 10 46 C8.700625 45.979375 7.40125 45.95875 6.0625 45.9375 C1.30617675 45.92995028 -3.28388953 46.40112883 -8 47 C-8 52.94 -8 58.88 -8 65 C-10.97 65 -13.94 65 -17 65 C-17 67.64 -17 70.28 -17 73 C-5.12 73 6.76 73 19 73 C19 82.24 19 91.48 19 101 C30.88 101 42.76 101 55 101 C55 91.76 55 82.52 55 73 C66.88 73 78.76 73 91 73 C91 70.36 91 67.72 91 65 C88.03 65 85.06 65 82 65 C82 59.06 82 53.12 82 47 C75.93303301 46.22959149 70.11485027 45.90293888 64 46 C64 43.03 64 40.06 64 37 C58.06 37 52.12 37 46 37 C46 34.03 46 31.06 46 28 C40.06 28 34.12 28 28 28 Z M-27 92 C-27 94.97 -27 97.94 -27 101 C-24.03 101 -21.06 101 -18 101 C-18 98.03 -18 95.06 -18 92 C-20.97 92 -23.94 92 -27 92 Z M92 92 C92 94.97 92 97.94 92 101 C94.97 101 97.94 101 101 101 C101 98.03 101 95.06 101 92 C98.03 92 95.06 92 92 92 Z M-17 120 C-17 131.55 -17 143.1 -17 155 C-5.45 155 6.1 155 18 155 C18 143.45 18 131.9 18 120 C6.45 120 -5.1 120 -17 120 Z M56 120 C56 131.55 56 143.1 56 155 C67.55 155 79.1 155 91 155 C91 143.45 91 131.9 91 120 C79.45 120 67.9 120 56 120 Z " fill="#E8032B" transform="translate(91,27)"/>
<path d="M0 0 C8.91 0 17.82 0 27 0 C27 2.97 27 5.94 27 9 C18.09 9 9.18 9 0 9 C0 6.03 0 3.06 0 0 Z " fill="#AB969C" transform="translate(192,119)"/>
<path d="M0 0 C8.91 0 17.82 0 27 0 C27 2.97 27 5.94 27 9 C18.09 9 9.18 9 0 9 C0 6.03 0 3.06 0 0 Z " fill="#AB969C" transform="translate(37,119)"/>
<path d="M0 0 C2.97 0 5.94 0 9 0 C9 2.97 9 5.94 9 9 C6.03 9 3.06 9 0 9 C0 6.03 0 3.06 0 0 Z " fill="#B4808C" transform="translate(210,119)"/>
<path d="M0 0 C2.97 0 5.94 0 9 0 C9 2.97 9 5.94 9 9 C6.03 9 3.06 9 0 9 C0 6.03 0 3.06 0 0 Z " fill="#8CD4CC" transform="translate(192,119)"/>
<path d="M0 0 C2.97 0 5.94 0 9 0 C9 2.97 9 5.94 9 9 C6.03 9 3.06 9 0 9 C0 6.03 0 3.06 0 0 Z " fill="#8AD9D0" transform="translate(55,119)"/>
<path d="M0 0 C2.97 0 5.94 0 9 0 C9 2.97 9 5.94 9 9 C6.03 9 3.06 9 0 9 C0 6.03 0 3.06 0 0 Z " fill="#B47D8A" transform="translate(37,119)"/>
<path d="M0 0 C2.97 0 5.94 0 9 0 C9 2.97 9 5.94 9 9 C6.03 9 3.06 9 0 9 C0 6.03 0 3.06 0 0 Z " fill="#EA0C33" transform="translate(146,100)"/>
<path d="M0 0 C2.97 0 5.94 0 9 0 C9 2.97 9 5.94 9 9 C6.03 9 3.06 9 0 9 C0 6.03 0 3.06 0 0 Z " fill="#EA0C33" transform="translate(101,100)"/>
<path d="M0 0 C2.97 0 5.94 0 9 0 C9 2.97 9 5.94 9 9 C6.03 9 3.06 9 0 9 C0 6.03 0 3.06 0 0 Z " fill="#E01B3E" transform="translate(173,83)"/>
<path d="M0 0 C2.97 0 5.94 0 9 0 C9 2.97 9 5.94 9 9 C6.03 9 3.06 9 0 9 C0 6.03 0 3.06 0 0 Z " fill="#E01B3E" transform="translate(74,83)"/>
<path d="M0 0 C2.97 0 5.94 0 9 0 C9 2.97 9 5.94 9 9 C6.03 9 3.06 9 0 9 C0 6.03 0 3.06 0 0 Z " fill="#E31035" transform="translate(211,82)"/>
<path d="M0 0 C2.97 0 5.94 0 9 0 C9 2.97 9 5.94 9 9 C6.03 9 3.06 9 0 9 C0 6.03 0 3.06 0 0 Z " fill="#E31035" transform="translate(36,82)"/>
<path d="M0 0 C2.97 0 5.94 0 9 0 C9 2.97 9 5.94 9 9 C6.03 9 3.06 9 0 9 C0 6.03 0 3.06 0 0 Z " fill="#E40D33" transform="translate(202,64)"/>
<path d="M0 0 C2.97 0 5.94 0 9 0 C9 2.97 9 5.94 9 9 C6.03 9 3.06 9 0 9 C0 6.03 0 3.06 0 0 Z " fill="#B39EA5" transform="translate(155,64)"/>
<path d="M0 0 C2.97 0 5.94 0 9 0 C9 2.97 9 5.94 9 9 C6.03 9 3.06 9 0 9 C0 6.03 0 3.06 0 0 Z " fill="#B0A0A7" transform="translate(92,64)"/>
<path d="M0 0 C2.97 0 5.94 0 9 0 C9 2.97 9 5.94 9 9 C6.03 9 3.06 9 0 9 C0 6.03 0 3.06 0 0 Z " fill="#E40D33" transform="translate(45,64)"/>
<path d="M0 0 C2.97 0 5.94 0 9 0 C9 2.97 9 5.94 9 9 C6.03 9 3.06 9 0 9 C0 6.03 0 3.06 0 0 Z " fill="#E21137" transform="translate(137,55)"/>
<path d="M0 0 C2.97 0 5.94 0 9 0 C9 2.97 9 5.94 9 9 C6.03 9 3.06 9 0 9 C0 6.03 0 3.06 0 0 Z " fill="#E21137" transform="translate(110,55)"/>
</svg>
